<?xml version="1.0" encoding="UTF-8"?>
<svg version="1.1" xmlns="http://www.w3.org/2000/svg" width="401" height="117">
<path d="M0 0 C3 1.3125 3 1.3125 5 3 C5.33 3.99 5.66 4.98 6 6 C6.46148437 5.566875 6.92296875 5.13375 7.3984375 4.6875 C12.129651 0.6482031 15.47884298 -0.82415372 21.734375 -0.3828125 C24.88195524 0.14902002 26.65502883 0.7971483 29 3 C31.53403687 7.98471979 32.36604285 11.57067227 32.29296875 17.24609375 C32.28872391 17.90207047 32.28447906 18.55804718 32.28010559 19.23390198 C32.26348779 21.30220911 32.22587238 23.36949401 32.1875 25.4375 C32.17243111 26.85089725 32.15874659 28.26430998 32.14648438 29.67773438 C32.11364104 33.11881435 32.06198015 36.55930719 32 40 C28.37 40 24.74 40 21 40 C20.67 30.1 20.34 20.2 20 10 C13.57431571 9.3309606 13.57431571 9.3309606 11.125 11.3125 C8.92492984 14.61260525 8.82622948 17.69180411 8.68359375 21.54296875 C8.62075195 23.15268555 8.62075195 23.15268555 8.55664062 24.79492188 C8.51732422 25.91447266 8.47800781 27.03402344 8.4375 28.1875 C8.37272461 29.88422852 8.37272461 29.88422852 8.30664062 31.61523438 C8.20050901 34.41003354 8.09845615 37.20492162 8 40 C4.7 40 1.4 40 -2 40 C-2.01981934 39.23333008 -2.03963867 38.46666016 -2.06005859 37.67675781 C-2.15535446 34.20082781 -2.26501598 30.72549494 -2.375 27.25 C-2.4059375 26.0434375 -2.436875 24.836875 -2.46875 23.59375 C-2.50742188 22.43359375 -2.54609375 21.2734375 -2.5859375 20.078125 C-2.6173584 19.00981445 -2.6487793 17.94150391 -2.68115234 16.84082031 C-2.99200148 14.07126402 -3.57670532 12.36716379 -5 10 C-8.43230448 10.26393501 -8.43230448 10.26393501 -12 11 C-14.29174077 14.43761116 -14.29524047 15.92071615 -14.4140625 19.98046875 C-14.47207031 21.72553711 -14.47207031 21.72553711 -14.53125 23.50585938 C-14.57765625 25.32827148 -14.57765625 25.32827148 -14.625 27.1875 C-14.68300781 29.02731445 -14.68300781 29.02731445 -14.7421875 30.90429688 C-14.83656103 33.93604656 -14.92214549 36.96778841 -15 40 C-18.63 40 -22.26 40 -26 40 C-26 27.13 -26 14.26 -26 1 C-22.7 1 -19.4 1 -16 1 C-15.67 1.99 -15.34 2.98 -15 4 C-14.195625 3.34 -13.39125 2.68 -12.5625 2 C-8.54577096 -0.67464659 -4.68166994 -0.72423623 0 0 Z " fill="#4F44DA" transform="translate(192,45)"/>
<path d="M0 0 C6.39966668 4.53010113 9.09892399 10.02515176 10.46484375 17.56640625 C11.70456824 27.35883679 10.62784556 36.0250535 4.71875 44.12109375 C0.80433932 48.40025634 -4.22553823 50.74744821 -10.00390625 51.2734375 C-18.04006912 51.50279012 -24.53802903 51.14586312 -31 46 C-38.68607055 37.16652015 -38.64675267 28.29562887 -38.17480469 17.10205078 C-37.66784133 11.00574562 -35.14519795 6.79648128 -30.8125 2.625 C-21.67988284 -4.40009012 -10.27247915 -4.71797902 0 0 Z M-24 11 C-27.96988498 17.35181597 -28.16294582 24.95155305 -26.49609375 32.1875 C-24.9348523 36.32702019 -22.87952043 38.9364253 -19 41 C-14.86320952 41.73327724 -10.92262364 41.95934595 -7.08984375 40.046875 C-3.77751642 37.47514174 -2.24161431 34.91586052 -1 31 C-0.30928953 23.91348997 -0.09494013 17.11792713 -4 11 C-7.18889351 8.10774775 -9.7446783 6.75222748 -14 6.5 C-18.2553217 6.75222748 -20.81110649 8.10774775 -24 11 Z " fill="#4F44E0" transform="translate(147,35)"/>
<path d="M0 0 C0.66 0.33 1.32 0.66 2 1 C2.33 0.67 2.66 0.34 3 0 C6.3 0 9.6 0 13 0 C13 11.55 13 23.1 13 35 C8.66666667 35 4.33333333 35 0 35 C-0.99 35.495 -0.99 35.495 -2 36 C-7.67862925 36.59057744 -12.16922672 36.29370905 -17 33 C-21.97649934 28.36280743 -23.59080524 23.777944 -24 17 C-23.53041564 11.57582148 -21.49282059 7.15362449 -18 3 C-12.43765197 -1.55744546 -6.86681511 -2.28893837 0 0 Z M-10.9375 11.0625 C-13.53327109 14.7595073 -13.71253588 16.56644342 -13 21 C-11.67838573 24.06873898 -11.67838573 24.06873898 -9 26 C-6.19956324 26.65420039 -3.80454175 26.62195176 -1 26 C1.78712003 24.07045537 2.73691052 22.73289213 3.875 19.5625 C4.06069134 15.75582755 2.86803019 13.32488818 0.8125 10.1875 C-3.35033484 7.46012545 -7.07816134 8.35275158 -10.9375 11.0625 Z " fill="#4E43D7" transform="translate(347,50)"/>
<path d="M0 0 C3.46007603 1.66825094 5.35936959 2.77356052 7.14404297 6.19018555 C8.20184783 9.66259745 8.2251858 12.6399252 8.1953125 16.26953125 C8.1924826 16.95053391 8.18965271 17.63153656 8.18673706 18.33317566 C8.17560525 20.49313455 8.15051457 22.65266794 8.125 24.8125 C8.11496111 26.28319711 8.10583685 27.75390076 8.09765625 29.22460938 C8.07568913 32.81654286 8.0412082 36.40822985 8 40 C4.7 40 1.4 40 -2 40 C-2.02505615 39.26362305 -2.0501123 38.52724609 -2.07592773 37.76855469 C-2.19204273 34.42886622 -2.31469918 31.08944903 -2.4375 27.75 C-2.47681641 26.59113281 -2.51613281 25.43226562 -2.55664062 24.23828125 C-2.59853516 23.12324219 -2.64042969 22.00820312 -2.68359375 20.859375 C-2.72025146 19.83295898 -2.75690918 18.80654297 -2.79467773 17.74902344 C-2.97282128 15.36389113 -3.32777363 13.28700501 -4 11 C-8.8202309 9.85508815 -8.8202309 9.85508815 -13.375 11.25 C-16.24678857 14.34269538 -16.16703692 17.50999683 -16.31640625 21.54296875 C-16.35830078 22.61611328 -16.40019531 23.68925781 -16.44335938 24.79492188 C-16.50233398 26.47424805 -16.50233398 26.47424805 -16.5625 28.1875 C-16.60568359 29.31865234 -16.64886719 30.44980469 -16.69335938 31.61523438 C-16.7994901 34.41001025 -16.90025397 37.20498898 -17 40 C-20.63 40 -24.26 40 -28 40 C-28 27.13 -28 14.26 -28 1 C-24.37 1 -20.74 1 -17 1 C-16.67 1.99 -16.34 2.98 -16 4 C-15.21625 3.34 -14.4325 2.68 -13.625 2 C-9.34306079 -0.84109711 -4.96340017 -0.79768931 0 0 Z " fill="#4F43E1" transform="translate(261,45)"/>
<path d="M0 0 C3.63 0 7.26 0 11 0 C11 12.87 11 25.74 11 39 C7.37 39 3.74 39 0 39 C0 26.13 0 13.26 0 0 Z " fill="#4F43E2" transform="translate(279,46)"/>
<path d="M0 0 C1.91635217 -0.05423638 3.83314925 -0.09289963 5.75 -0.125 C7.35101563 -0.15980469 7.35101563 -0.15980469 8.984375 -0.1953125 C11.92470106 -0.00487687 13.52361878 0.47329896 16 2 C16.33 1.34 16.66 0.68 17 0 C19.64 0 22.28 0 25 0 C25 10.56 25 21.12 25 32 C22.69 32 20.38 32 18 32 C17.34 31.01 16.68 30.02 16 29 C15.01 29 14.02 29 13 29 C12.67 28.34 12.34 27.68 12 27 C12.99 26.34 13.98 25.68 15 25 C17.39154557 19.97775431 17.29822721 16.27945733 16 11 C13.17109342 8.33749969 11.42632156 8.0310052 7.5625 7.75 C4.28947799 7.97968576 1.19284448 8.23979893 -2 9 C-2.33 9.66 -2.66 10.32 -3 11 C-3.75 9.4375 -3.75 9.4375 -4 7 C-2.86915563 4.49713591 -1.47860484 2.32992278 0 0 Z " fill="#4F43E3" transform="translate(334,51)"/>
<path d="M0 0 C3.3 0 6.6 0 10 0 C10 11.55 10 23.1 10 35 C6.7 35 3.4 35 0 35 C0 23.45 0 11.9 0 0 Z " fill="#4F43E3" transform="translate(368,50)"/>
<path d="M0 0 C4.95124605 3.58237215 9.72876198 7.35704873 14.4375 11.25 C14.96956055 11.68618652 15.50162109 12.12237305 16.04980469 12.57177734 C19.88096605 15.76193209 19.88096605 15.76193209 21 18 C21.07116382 20.37402501 21.08409085 22.75000677 21.0625 25.125 C21.05347656 26.40632813 21.04445313 27.68765625 21.03515625 29.0078125 C21.02355469 29.99523437 21.01195313 30.98265625 21 32 C17.36410113 30.40875955 14.59933476 28.1606096 11.5625 25.625 C7.42613121 22.18404232 7.42613121 22.18404232 3.21484375 18.8359375 C1 17 1 17 0 15 C-0.0716735 12.44842345 -0.09308442 9.92527029 -0.0625 7.375 C-0.05798828 6.66859375 -0.05347656 5.9621875 -0.04882812 5.234375 C-0.03703875 3.48954725 -0.01910324 1.744763 0 0 Z " fill="#5044DD" transform="translate(30,23)"/>
<path d="M0 0 C1.05312427 12.98853265 1.05312427 12.98853265 -1.171875 17.23828125 C-2.99815909 19.06021704 -4.89929562 20.50104113 -7 22 C-8.91875406 23.62253473 -10.83532519 25.24765355 -12.75 26.875 C-17.59013283 30.86337761 -17.59013283 30.86337761 -21 32 C-21.10853983 29.77191841 -21.18583307 27.54230068 -21.25 25.3125 C-21.29640625 24.07113281 -21.3428125 22.82976563 -21.390625 21.55078125 C-20.80315234 16.21065477 -18.28611721 14.13661327 -14.37890625 10.68359375 C-12.98478516 9.57177734 -12.98478516 9.57177734 -11.5625 8.4375 C-10.63566406 7.69371094 -9.70882812 6.94992188 -8.75390625 6.18359375 C-7.39072266 5.10271484 -7.39072266 5.10271484 -6 4 C-5.08089844 3.24847656 -4.16179687 2.49695313 -3.21484375 1.72265625 C-1 0 -1 0 0 0 Z " fill="#4F44E0" transform="translate(76,23)"/>
<path d="M0 0 C1.92571132 12.04804004 1.92571132 12.04804004 -1.17919922 16.80761719 C-4.19713199 20.18699663 -7.67399452 22.99477862 -11.29394531 25.70410156 C-13.02561718 27.0194585 -14.66138044 28.41240403 -16.3046875 29.8359375 C-19 32 -19 32 -21 32 C-21.13563775 29.77252674 -21.23227853 27.54265677 -21.3125 25.3125 C-21.37050781 24.07113281 -21.42851562 22.82976562 -21.48828125 21.55078125 C-20.86083487 16.98799117 -19.48812643 15.92870993 -16 13 C-14.90764222 11.97940904 -13.82062522 10.95307961 -12.73828125 9.921875 C-11.59737032 8.8634869 -10.45543016 7.80620726 -9.3125 6.75 C-8.44141602 5.93789062 -8.44141602 5.93789062 -7.55273438 5.109375 C-2.02822266 0 -2.02822266 0 0 0 Z " fill="#4E43DC" transform="translate(51,63)"/>
<path d="M0 0 C16.49688077 -1.37792972 16.49688077 -1.37792972 22.4375 3.4375 C23.98606187 4.93008976 25.50612326 6.45267963 27 8 C28.86810886 9.653651 30.74303315 11.29963763 32.625 12.9375 C34.10649519 14.26628722 35.57319172 15.61265663 37 17 C37 17.33 37 17.66 37 18 C20.50311923 19.37792972 20.50311923 19.37792972 14.5625 14.5625 C13.01393813 13.06991024 11.49387674 11.54732037 10 10 C8.13189114 8.346349 6.25696685 6.70036237 4.375 5.0625 C2.89350481 3.73371278 1.42680828 2.38734337 0 1 C0 0.67 0 0.34 0 0 Z " fill="#4D42E0" transform="translate(61,61)"/>
<path d="M0 0 C4.23796819 2.70029831 7.9200752 5.57685821 11.625 9 C13.00558594 10.2684375 13.00558594 10.2684375 14.4140625 11.5625 C15.26742187 12.366875 16.12078125 13.17125 17 14 C17.76570313 14.61359375 18.53140625 15.2271875 19.3203125 15.859375 C21.76390955 18.97354055 21.39412672 21.35857852 21.25 25.25 C21.21390625 26.51328125 21.1778125 27.7765625 21.140625 29.078125 C21.07101563 30.52445313 21.07101563 30.52445313 21 32 C18.21142906 30.7070307 15.97377331 29.29514531 13.65234375 27.28515625 C13.04712891 26.76373047 12.44191406 26.24230469 11.81835938 25.70507812 C11.19767578 25.16302734 10.57699219 24.62097656 9.9375 24.0625 C9.31294922 23.52431641 8.68839844 22.98613281 8.04492188 22.43164062 C6.35167294 20.96608579 4.66223147 19.5006581 3 18 C2.44473633 17.51998535 1.88947266 17.0399707 1.31738281 16.54541016 C-0.93320492 13.90526554 -0.30748922 10.60758863 -0.1875 7.3125 C-0.17396484 6.61060547 -0.16042969 5.90871094 -0.14648438 5.18554688 C-0.11120182 3.45670171 -0.05739583 1.72825235 0 0 Z " fill="#4E45D3" transform="translate(55,63)"/>
<path d="M0 0 C0.75410156 0.00451172 1.50820313 0.00902344 2.28515625 0.01367188 C4.14847127 0.02546501 6.01174555 0.04340058 7.875 0.0625 C6.51431602 3.17426271 5.04337135 5.06102071 2.46875 7.26171875 C1.47681641 8.11540039 1.47681641 8.11540039 0.46484375 8.98632812 C-0.56962891 9.8593457 -0.56962891 9.8593457 -1.625 10.75 C-2.65947266 11.64041992 -2.65947266 11.64041992 -3.71484375 12.54882812 C-9.32789807 17.34673128 -12.26764611 18.20395341 -19.75 18.125 C-20.55179688 18.12048828 -21.35359375 18.11597656 -22.1796875 18.11132812 C-24.16149006 18.09953168 -26.14325433 18.08159605 -28.125 18.0625 C-20.74922991 8.63790489 -12.30997472 -0.13819488 0 0 Z " fill="#4E43DE" transform="translate(36.125,60.9375)"/>
<path d="M0 0 C6.35628187 -0.47672114 11.51006404 1.11736549 16.5625 4.9375 C17.036875 5.618125 17.51125 6.29875 18 7 C17.70060875 8.34136265 17.35927004 9.67342021 17 11 C16.85374965 13.02350669 16.75316797 15.05053334 16.68359375 17.078125 C16.64169922 18.23828125 16.59980469 19.3984375 16.55664062 20.59375 C16.51732422 21.8003125 16.47800781 23.006875 16.4375 24.25 C16.39431641 25.47203125 16.35113281 26.6940625 16.30664062 27.953125 C16.20062645 30.9686392 16.09856064 33.98423448 16 37 C13.36 37 10.72 37 8 37 C7.98018066 36.20303711 7.96036133 35.40607422 7.93994141 34.58496094 C7.84466752 30.97297528 7.73499693 27.36156601 7.625 23.75 C7.5940625 22.49574219 7.563125 21.24148437 7.53125 19.94921875 C7.49257812 18.74394531 7.45390625 17.53867188 7.4140625 16.296875 C7.36693115 14.63156738 7.36693115 14.63156738 7.31884766 12.93261719 C6.88981693 8.98658576 6.0312224 6.8700939 3 4.3125 C1.04503256 2.97383243 1.04503256 2.97383243 -1 2 C-0.67 1.34 -0.34 0.68 0 0 Z " fill="#4F43E4" transform="translate(183,47)"/>
<path d="M0 0 C1.20366211 0.00966797 1.20366211 0.00966797 2.43164062 0.01953125 C3.26501953 0.03628906 4.09839844 0.05304687 4.95703125 0.0703125 C6.22450195 0.08384766 6.22450195 0.08384766 7.51757812 0.09765625 C9.60168368 0.12120547 11.68564342 0.15707603 13.76953125 0.1953125 C10.94172449 3.97016775 7.94981578 6.87810701 4.26953125 9.8203125 C3.33109375 10.57570313 2.39265625 11.33109375 1.42578125 12.109375 C0.54921875 12.79773437 -0.32734375 13.48609375 -1.23046875 14.1953125 C-1.813125 14.77667969 -2.39578125 15.35804687 -2.99609375 15.95703125 C-6.64289226 17.97807168 -10.39331147 17.50734307 -14.48046875 17.3828125 C-15.3209375 17.36927734 -16.16140625 17.35574219 -17.02734375 17.34179688 C-19.09532813 17.30654714 -21.16298146 17.2527427 -23.23046875 17.1953125 C-19.77534982 13.69621933 -16.24294413 10.3196186 -12.60546875 7.0078125 C-11.66445312 6.14800781 -10.7234375 5.28820313 -9.75390625 4.40234375 C-6.39011106 1.46032474 -4.45176574 -0.06314561 0 0 Z " fill="#4E43DC" transform="translate(84.23046875,39.8046875)"/>
<path d="M0 0 C2.95839355 -0.02689449 5.91654427 -0.04678741 8.875 -0.0625 C9.71675781 -0.07087891 10.55851562 -0.07925781 11.42578125 -0.08789062 C12.23144531 -0.09111328 13.03710938 -0.09433594 13.8671875 -0.09765625 C14.98262939 -0.10551147 14.98262939 -0.10551147 16.12060547 -0.11352539 C18 0 18 0 20 1 C20 1.66 20 2.32 20 3 C20.53109375 3.226875 21.0621875 3.45375 21.609375 3.6875 C24.78994062 5.43369289 27.47998907 7.68061286 30.25 10 C30.80429687 10.45117188 31.35859375 10.90234375 31.9296875 11.3671875 C33.32731582 12.53073029 34.66885563 13.76094738 36 15 C36 15.66 36 16.32 36 17 C19.50223134 18.37800388 19.50223134 18.37800388 13.5 13.5 C11.9726987 12.02780751 10.47262734 10.52688203 9 9 C7.29970334 7.51160218 5.59164526 6.03201212 3.875 4.5625 C2.56047668 3.40035222 1.26030666 2.22073181 0 1 C0 0.67 0 0.34 0 0 Z " fill="#4E43E1" transform="translate(8,40)"/>
<path d="M0 0 C14.64390764 -0.40768117 14.64390764 -0.40768117 19.46484375 2.47265625 C24.82922913 9.27978586 23.64757022 18.83569694 23 27 C22.70722021 28.67426667 22.39382587 30.3465823 22 32 C21.34 32 20.68 32 20 32 C20.33 34.31 20.66 36.62 21 39 C22.65 39.33 24.3 39.66 26 40 C22.09078872 44.5106284 18.37294451 45.82209457 12.45703125 46.265625 C11.25433594 46.26046875 10.05164063 46.2553125 8.8125 46.25 C6.99685547 46.25773437 6.99685547 46.25773437 5.14453125 46.265625 C2 46 2 46 -1 44 C4.28 44 9.56 44 15 44 C14.34 43.01 13.68 42.02 13 41 C13.66 41 14.32 41 15 41 C15.33 40.01 15.66 39.02 16 38 C9.4 37.67 2.8 37.34 -4 37 C-3.67 34.36 -3.34 31.72 -3 29 C-2.41605469 29.6496875 -2.41605469 29.6496875 -1.8203125 30.3125 C1.65061842 33.76743585 4.13912193 35.46079443 9.125 35.625 C12.48808659 35.40522382 13.99733836 35.00149717 17 33.3125 C21.50685805 28.10144538 21.36985161 22.79367631 21.25 16.171875 C20.84184768 10.99344243 19.82057967 7.61251342 15.8125 4.0625 C11.35329571 2.37791171 7.30896328 1.99364053 2.9296875 3.90234375 C1.24278897 4.86189534 -0.3852294 5.92348627 -2 7 C-2 5.68 -2 4.36 -2 3 C-1.34 2.67 -0.68 2.34 0 2 C0 1.34 0 0.68 0 0 Z M17 39 C17.33 39.99 17.66 40.98 18 42 C18.99 42 19.98 42 21 42 C21 41.01 21 40.02 21 39 C19.68 39 18.36 39 17 39 Z " fill="#5046C6" transform="translate(124,40)"/>
<path d="M0 0 C0.66 0.33 1.32 0.66 2 1 C2.33 0.67 2.66 0.34 3 0 C6.3 0 9.6 0 13 0 C13 11.55 13 23.1 13 35 C8.66666667 35 4.33333333 35 0 35 C-0.99 35.495 -0.99 35.495 -2 36 C-3.54023996 36.06950541 -5.08334988 36.08452357 -6.625 36.0625 C-7.85089844 36.04896484 -7.85089844 36.04896484 -9.1015625 36.03515625 C-9.72804688 36.02355469 -10.35453125 36.01195312 -11 36 C-11 35.67 -11 35.34 -11 35 C-6.05 34.505 -6.05 34.505 -1 34 C-1 33.01 -1 32.02 -1 31 C-2.32 30.34 -3.64 29.68 -5 29 C-5 28.34 -5 27.68 -5 27 C-3.35 26.67 -1.7 26.34 0 26 C2.5075645 20.21414988 2.5075645 20.21414988 2.3125 14.125 C1.24359183 12.39438678 0.12831894 10.69247841 -1 9 C1.65356255 9.97297293 2.80987991 10.69218652 4.3125 13.125 C5.25395277 17.06198433 4.64502021 20.00087469 4 24 C4 24.99 4 25.98 4 27 C2.02 27.99 2.02 27.99 0 29 C0.99 29 1.98 29 3 29 C3.66 30.32 4.32 31.64 5 33 C7.31 33 9.62 33 12 33 C12 22.44 12 11.88 12 1 C10.02 1.33 8.04 1.66 6 2 C5.34 1.67 4.68 1.34 4 1 C3.67 1.99 3.34 2.98 3 4 C2.48953125 3.67257813 1.9790625 3.34515625 1.453125 3.0078125 C-1.86772037 1.64351616 -4.67372568 1.8087727 -8.25 1.875 C-9.51328125 1.89304688 -10.7765625 1.91109375 -12.078125 1.9296875 C-13.04234375 1.95289063 -14.0065625 1.97609375 -15 2 C-12.50504128 -2.98991744 -4.49439393 -1.49813131 0 0 Z " fill="#5147BE" transform="translate(347,50)"/>
<path d="M0 0 C2.45286296 3.67929445 2.23228878 5.47377907 2.1953125 9.85546875 C2.1924826 10.51710526 2.18965271 11.17874176 2.18673706 11.86042786 C2.17555918 13.96963737 2.15045981 16.07841925 2.125 18.1875 C2.11496707 19.61913448 2.10584176 21.05077564 2.09765625 22.48242188 C2.07562795 25.98841977 2.04111485 29.49416813 2 33 C-1.63 33 -5.26 33 -9 33 C-9.33 23.1 -9.66 13.2 -10 3 C-16.42568429 2.3309606 -16.42568429 2.3309606 -18.875 4.3125 C-21.07507016 7.61260525 -21.17377052 10.69180411 -21.31640625 14.54296875 C-21.35830078 15.61611328 -21.40019531 16.68925781 -21.44335938 17.79492188 C-21.50233398 19.47424805 -21.50233398 19.47424805 -21.5625 21.1875 C-21.60568359 22.31865234 -21.64886719 23.44980469 -21.69335938 24.61523438 C-21.79949099 27.41003354 -21.90154385 30.20492162 -22 33 C-25.3 33 -28.6 33 -32 33 C-32 24.75 -32 16.5 -32 8 C-31.67 8 -31.34 8 -31 8 C-31 15.92 -31 23.84 -31 32 C-28.36 32 -25.72 32 -23 32 C-23.00523682 31.23856689 -23.01047363 30.47713379 -23.01586914 29.69262695 C-23.03669525 26.23259308 -23.04967813 22.77257241 -23.0625 19.3125 C-23.07087891 18.11431641 -23.07925781 16.91613281 -23.08789062 15.68164062 C-23.09111328 14.52470703 -23.09433594 13.36777344 -23.09765625 12.17578125 C-23.10289307 11.11270752 -23.10812988 10.04963379 -23.11352539 8.9543457 C-23.00716844 6.1865491 -22.62894788 3.69207103 -22 1 C-19.85423363 0.97314062 -17.70837355 0.95366912 -15.5625 0.9375 C-14.36753906 0.92589844 -13.17257813 0.91429687 -11.94140625 0.90234375 C-9 1 -9 1 -8 2 C-7.91216458 4.21855264 -7.89305391 6.43988496 -7.90234375 8.66015625 C-7.9037587 9.32462265 -7.90517365 9.98908905 -7.90663147 10.6736908 C-7.91224482 12.80333899 -7.92479946 14.93288339 -7.9375 17.0625 C-7.94251329 18.50325369 -7.94707649 19.94400903 -7.95117188 21.38476562 C-7.96221855 24.92321102 -7.97949208 28.46159539 -8 32 C-4.04 31.505 -4.04 31.505 0 31 C0 20.77 0 10.54 0 0 Z " fill="#4F47BA" transform="translate(222,52)"/>
<path d="M0 0 C3.63 0 7.26 0 11 0 C10.67 1.32 10.34 2.64 10 4 C10 3.01 10 2.02 10 1 C7.36 1 4.72 1 2 1 C2 12.88 2 24.76 2 37 C3.98 37 5.96 37 8 37 C8.66 37.33 9.32 37.66 10 38 C9.99476318 37.19780029 9.98952637 36.39560059 9.98413086 35.5690918 C9.96337103 31.94190247 9.95034298 28.31472563 9.9375 24.6875 C9.92912109 23.42486328 9.92074219 22.16222656 9.91210938 20.86132812 C9.90727539 19.04858398 9.90727539 19.04858398 9.90234375 17.19921875 C9.89710693 16.08377686 9.89187012 14.96833496 9.88647461 13.8190918 C10 11 10 11 11 8 C13.8914086 6.8805387 16.67762612 6.89231803 19.75 6.9375 C20.54921875 6.94652344 21.3484375 6.95554687 22.171875 6.96484375 C22.77515625 6.97644531 23.3784375 6.98804688 24 7 C24 7.99 24 8.98 24 10 C22.9275 9.773125 21.855 9.54625 20.75 9.3125 C17.10922544 8.67075237 17.10922544 8.67075237 14.625 10.25 C11.75321143 13.34269538 11.83296308 16.50999683 11.68359375 20.54296875 C11.64169922 21.61611328 11.59980469 22.68925781 11.55664062 23.79492188 C11.49766602 25.47424805 11.49766602 25.47424805 11.4375 27.1875 C11.39431641 28.31865234 11.35113281 29.44980469 11.30664062 30.61523438 C11.2005099 33.41001025 11.09974603 36.20498898 11 39 C7.37 39 3.74 39 0 39 C0 26.13 0 13.26 0 0 Z " fill="#4E46BA" transform="translate(233,46)"/>
<path d="M0 0 C0.66 0 1.32 0 2 0 C2 2.31 2 4.62 2 7 C2.99 7 3.98 7 5 7 C5.66 7.66 6.32 8.32 7 9 C9.67813399 9.02207488 9.67813399 9.02207488 12.625 8.625 C13.62789063 8.51414062 14.63078125 8.40328125 15.6640625 8.2890625 C16.43492187 8.19367188 17.20578125 8.09828125 18 8 C17.67 8.66 17.34 9.32 17 10 C15.35 10 13.7 10 12 10 C13.25541557 12.51083114 14.50063488 12.87125446 17 14 C16 17 16 17 14 18 C11.3276379 18.13415472 8.67749512 18.04318541 6 18 C6 17.34 6 16.68 6 16 C3.525 15.01 3.525 15.01 1 14 C1 13.34 1 12.68 1 12 C0.01 12 -0.98 12 -2 12 C-2.99 9.03 -3.98 6.06 -5 3 C-3.68 3 -2.36 3 -1 3 C-0.67 2.01 -0.34 1.02 0 0 Z " fill="#4F44E2" transform="translate(330,67)"/>
<path d="M0 0 C0.92017937 13.5470852 0.92017937 13.5470852 -1.3359375 17.109375 C-3 18.4375 -3 18.4375 -6 20 C-4.79618552 17.50638429 -3.54571278 15.31856917 -2 13 C-3.09069279 11.69591241 -3.09069279 11.69591241 -5.75 11.75 C-10.12024608 12.08617278 -12.61744894 13.61744894 -15.6875 16.6875 C-16.3371875 17.3371875 -16.3371875 17.3371875 -17 18 C-17.66 18 -18.32 18 -19 18 C-19 22.62 -19 27.24 -19 32 C-19.66 32 -20.32 32 -21 32 C-21.10853983 29.77191841 -21.18583307 27.54230068 -21.25 25.3125 C-21.29640625 24.07113281 -21.3428125 22.82976563 -21.390625 21.55078125 C-20.80315234 16.21065477 -18.28611721 14.13661327 -14.37890625 10.68359375 C-12.98478516 9.57177734 -12.98478516 9.57177734 -11.5625 8.4375 C-10.63566406 7.69371094 -9.70882812 6.94992188 -8.75390625 6.18359375 C-7.39072266 5.10271484 -7.39072266 5.10271484 -6 4 C-5.08089844 3.24847656 -4.16179687 2.49695313 -3.21484375 1.72265625 C-1 0 -1 0 0 0 Z " fill="#4C42DE" transform="translate(76,23)"/>
<path d="M0 0 C3.63 0 7.26 0 11 0 C11 12.87 11 25.74 11 39 C7.37 39 3.74 39 0 39 C0 26.13 0 13.26 0 0 Z M2 1 C1.9753499 6.10863896 1.95716393 11.21724359 1.94506836 16.32592773 C1.94002796 18.06519168 1.9331957 19.80445136 1.92456055 21.54370117 C1.91248208 24.03825937 1.90676892 26.53276173 1.90234375 29.02734375 C1.89718246 29.80963852 1.89202118 30.59193329 1.88670349 31.39793396 C1.88650774 33.26567114 1.93800306 35.13329204 2 37 C2.33 37.33 2.66 37.66 3 38 C5.31 38 7.62 38 10 38 C10 25.79 10 13.58 10 1 C7.36 1 4.72 1 2 1 Z " fill="#4E45B9" transform="translate(279,46)"/>
<path d="M0 0 C2.94648135 1.24062373 3.97358374 2.11931101 5.375 5 C5.25 8.125 5.25 8.125 4.375 11 C0.90457297 13.31361802 -0.54334173 13.51020728 -4.625 13 C-6.92961651 10.92584514 -7.5197981 9.52600949 -8.125 6.5 C-7.625 4 -7.625 4 -5.4375 1.625 C-2.625 0 -2.625 0 0 0 Z " fill="#4D43CE" transform="translate(313.625,73)"/>
<path d="M0 0 C2 1.0625 2 1.0625 3 3 C2.875 6.5625 2.875 6.5625 2 10 C-1 12 -1 12 -4.5625 11.8125 C-8 11 -8 11 -10 8 C-9.75 4.375 -9.75 4.375 -9 1 C-5.95016004 -0.52491998 -3.3576631 -0.23562548 0 0 Z " fill="#4F44D7" transform="translate(288,30)"/>
<path d="M0 0 C2.375 0.25 2.375 0.25 5 1 C5.69937532 2.31647119 6.36729133 3.65022151 7 5 C9.05000871 5.80528889 9.05000871 5.80528889 11 6 C11 6.99 11 7.98 11 9 C12.32 9.33 13.64 9.66 15 10 C14.01 11.485 14.01 11.485 13 13 C13 13.99 13 14.98 13 16 C12.34 16.33 11.68 16.66 11 17 C11 16.34 11 15.68 11 15 C9.68 15 8.36 15 7 15 C7 14.34 7 13.68 7 13 C6.01 13 5.02 13 4 13 C4 12.01 4 11.02 4 10 C2.35 9.67 0.7 9.34 -1 9 C-0.67 6.03 -0.34 3.06 0 0 Z " fill="#4E44E4" transform="translate(57,69)"/>
<path d="M0 0 C2 1.625 2 1.625 3 4 C1.76923077 9.23076923 1.76923077 9.23076923 0 11 C-2.875 11.3125 -2.875 11.3125 -6 11 C-7.9375 9.375 -7.9375 9.375 -9 7 C-8.8125 3.8125 -8.8125 3.8125 -8 1 C-5.17116253 -0.41441874 -3.12623255 -0.31900332 0 0 Z " fill="#4E45C6" transform="translate(376,34)"/>
<path d="M0 0 C1.20628008 2.33214148 2.1654738 4.49642139 3 7 C3.99 6.67 4.98 6.34 6 6 C6 7.32 6 8.64 6 10 C4 12 4 12 1.3984375 12.1953125 C0.40070313 12.17210937 -0.59703125 12.14890625 -1.625 12.125 C-3.12933594 12.09792969 -3.12933594 12.09792969 -4.6640625 12.0703125 C-5.43492188 12.04710937 -6.20578125 12.02390625 -7 12 C-7 11.34 -7 10.68 -7 10 C-7.33 10.66 -7.66 11.32 -8 12 C-8.99 12 -9.98 12 -11 12 C-9.549046 8.17475764 -7.61818068 6.80909034 -4 5 C-3.34 5 -2.68 5 -2 5 C-1.34 3.35 -0.68 1.7 0 0 Z " fill="#4F43E0" transform="translate(78,43)"/>
<path d="M0 0 C3.3 0 6.6 0 10 0 C10 11.55 10 23.1 10 35 C6.7 35 3.4 35 0 35 C0 23.45 0 11.9 0 0 Z M1 1 C1 11.56 1 22.12 1 33 C3.31 33 5.62 33 8 33 C9.33996932 31.88652404 9.33996932 31.88652404 9.11352539 29.04077148 C9.10828857 27.74727783 9.10305176 26.45378418 9.09765625 25.12109375 C9.0962413 24.4344313 9.09482635 23.74776886 9.09336853 23.04029846 C9.08775479 20.83932199 9.07520007 18.63844591 9.0625 16.4375 C9.05748676 14.94856917 9.05292355 13.45963676 9.04882812 11.97070312 C9.03778093 8.31376925 9.02050713 4.65689442 9 1 C6.36 1 3.72 1 1 1 Z " fill="#5249BD" transform="translate(368,50)"/>
<path d="M0 0 C2.625 2.6875 2.625 2.6875 4 5 C3.34 5 2.68 5 2 5 C1.67 5.66 1.34 6.32 1 7 C0.34 7 -0.32 7 -1 7 C-1.66 5.02 -2.32 3.04 -3 1 C-5.31 1 -7.62 1 -10 1 C-10 1.66 -10 2.32 -10 3 C-11.65 3.66 -13.3 4.32 -15 5 C-15 3.35 -15 1.7 -15 0 C-17.91652174 -0.16681109 -17.91652174 -0.16681109 -21 0 C-21.66 0.66 -22.32 1.32 -23 2 C-23.99 2.495 -23.99 2.495 -25 3 C-27.125 2.0625 -27.125 2.0625 -29 1 C-19.49931382 -4.08176238 -9.88995488 -4.47319514 0 0 Z " fill="#5147CE" transform="translate(147,35)"/>
<path d="M0 0 C2.65356255 0.97297293 3.80987991 1.69218652 5.3125 4.125 C6.25395277 8.06198433 5.64502021 11.00087469 5 15 C5 15.99 5 16.98 5 18 C3.02 18.99 3.02 18.99 1 20 C1.99 20 2.98 20 4 20 C4.66 21.32 5.32 22.64 6 24 C8.31 24 10.62 24 13 24 C13 24.33 13 24.66 13 25 C12.32453125 24.97679688 11.6490625 24.95359375 10.953125 24.9296875 C10.06109375 24.91164063 9.1690625 24.89359375 8.25 24.875 C7.36828125 24.85179688 6.4865625 24.82859375 5.578125 24.8046875 C2.83828538 25.01225111 1.41420687 25.77373619 -1 27 C-3.359375 27.1953125 -3.359375 27.1953125 -5.75 27.125 C-6.54921875 27.10695313 -7.3484375 27.08890625 -8.171875 27.0703125 C-8.77515625 27.04710938 -9.3784375 27.02390625 -10 27 C-10 26.67 -10 26.34 -10 26 C-6.7 25.67 -3.4 25.34 0 25 C0 24.01 0 23.02 0 22 C-1.32 21.34 -2.64 20.68 -4 20 C-4 19.34 -4 18.68 -4 18 C-2.35 17.67 -0.7 17.34 1 17 C3.5075645 11.21414988 3.5075645 11.21414988 3.3125 5.125 C2.24359183 3.39438678 1.12831894 1.69247841 0 0 Z " fill="#4E43CA" transform="translate(346,59)"/>
<path d="M0 0 C3.9201305 1.67461885 7.01217061 4.28889884 10.25 7 C10.80429687 7.45117188 11.35859375 7.90234375 11.9296875 8.3671875 C13.32731582 9.53073029 14.66885563 10.76094738 16 12 C16 12.66 16 13.32 16 14 C13.28996573 14.1358035 10.58681059 14.23444624 7.875 14.3125 C7.11445312 14.35439453 6.35390625 14.39628906 5.5703125 14.43945312 C1.35184107 14.53036846 -1.22158657 14.265687 -4.5546875 11.54296875 C-7 9 -7 9 -7 8 C-5.35 8 -3.7 8 -2 8 C-1.67 8.99 -1.34 9.98 -1 11 C2.96 11.33 6.92 11.66 11 12 C10.01 11.34 9.02 10.68 8 10 C6 8 6 8 4 5.4375 C2.23362558 2.94690328 2.23362558 2.94690328 0 2 C0 1.34 0 0.68 0 0 Z " fill="#4940C0" transform="translate(28,43)"/>
<path d="M0 0 C2.2477975 2.05233685 3.0022242 3.00667261 4 6 C4.08397157 8.35680213 4.10728187 10.71594081 4.09765625 13.07421875 C4.0962413 13.7580513 4.09482635 14.44188385 4.09336853 15.1464386 C4.08777876 17.32683722 4.07522822 19.50713251 4.0625 21.6875 C4.05748367 23.16731622 4.052921 24.64713406 4.04882812 26.12695312 C4.03781271 29.75133557 4.02055512 33.3756577 4 37 C0.7 37 -2.6 37 -6 37 C-6.33 28.42 -6.66 19.84 -7 11 C-6.34 11 -5.68 11 -5 11 C-5 19.25 -5 27.5 -5 36 C-2.36 36 0.28 36 3 36 C2.90638035 31.92450059 2.80026839 27.84953664 2.68261719 23.7746582 C2.6443565 22.38868093 2.60949844 21.00260535 2.578125 19.61645508 C2.53241301 17.6229836 2.47341075 15.62983086 2.4140625 13.63671875 C2.3826416 12.43748779 2.3512207 11.23825684 2.31884766 10.00268555 C2.21570506 6.82117294 2.21570506 6.82117294 0 4 C0 2.68 0 1.36 0 0 Z " fill="#5149B1" transform="translate(265,48)"/>
<path d="M0 0 C1.29550781 -0.02126953 1.29550781 -0.02126953 2.6171875 -0.04296875 C5.2491288 0.19890748 6.86480544 0.85766459 9.125 2.1875 C8.795 3.1775 8.465 4.1675 8.125 5.1875 C7.135 5.5175 6.145 5.8475 5.125 6.1875 C4.795 6.8475 4.465 7.5075 4.125 8.1875 C1.485 7.1975 -1.155 6.2075 -3.875 5.1875 C-3.215 4.5275 -2.555 3.8675 -1.875 3.1875 C-3.195 2.8575 -4.515 2.5275 -5.875 2.1875 C-5.875 2.8475 -5.875 3.5075 -5.875 4.1875 C-7.855 4.8475 -9.835 5.5075 -11.875 6.1875 C-5.88871858 0.04368486 -5.88871858 0.04368486 0 0 Z " fill="#4E44CD" transform="translate(255.875,44.8125)"/>
<path d="M0 0 C0.66 0.33 1.32 0.66 2 1 C-0.23797392 5.60027973 -2.47413098 6.83135443 -7 9 C-8.85315257 11.04946399 -8.85315257 11.04946399 -10 13 C-9.01 13 -8.02 13 -7 13 C-6.67 12.01 -6.34 11.02 -6 10 C-5.67 10.66 -5.34 11.32 -5 12 C-2.87423218 12.46651207 -2.87423218 12.46651207 -0.4375 12.625 C0.38878906 12.69976562 1.21507813 12.77453125 2.06640625 12.8515625 C2.70449219 12.90054688 3.34257813 12.94953125 4 13 C2 15 2 15 0.12060547 15.22705078 C-0.62302246 15.21657715 -1.36665039 15.20610352 -2.1328125 15.1953125 C-3.34130859 15.18564453 -3.34130859 15.18564453 -4.57421875 15.17578125 C-5.41597656 15.15902344 -6.25773437 15.14226563 -7.125 15.125 C-8.39923828 15.11146484 -8.39923828 15.11146484 -9.69921875 15.09765625 C-11.79959884 15.07405647 -13.89983444 15.03818483 -16 15 C-12.49441279 11.44314278 -8.89446761 8.03716953 -5.1875 4.6875 C-4.21167969 3.80449219 -3.23585938 2.92148437 -2.23046875 2.01171875 C-1.49441406 1.34785156 -0.75835937 0.68398438 0 0 Z " fill="#4D44BC" transform="translate(77,42)"/>
<path d="M0 0 C4.09521361 2.26097717 7.37135445 4.9648583 10.8125 8.125 C11.31458984 8.58003906 11.81667969 9.03507812 12.33398438 9.50390625 C13.57853228 10.64516514 14.79231057 11.81980613 16 13 C16 13.33 16 13.66 16 14 C10.39 14 4.78 14 -1 14 C-1 13.67 -1 13.34 -1 13 C4.445 12.505 4.445 12.505 10 12 C9.67 11.34 9.34 10.68 9 10 C6.36 10.33 3.72 10.66 1 11 C1.33 9.68 1.66 8.36 2 7 C2.99 7 3.98 7 5 7 C4.67 6.34 4.34 5.68 4 5 C3.01 4.67 2.02 4.34 1 4 C0.3125 1.9375 0.3125 1.9375 0 0 Z " fill="#4C46C1" transform="translate(82,65)"/>
<path d="M0 0 C0.96541545 3.18554592 1.05239684 5.88752707 0.87890625 9.203125 C0.83056641 10.1828125 0.78222656 11.1625 0.73242188 12.171875 C0.67634766 13.18765625 0.62027344 14.2034375 0.5625 15.25 C0.51029297 16.28125 0.45808594 17.3125 0.40429688 18.375 C0.27484366 20.91699039 0.13988672 23.45856593 0 26 C0.66 26 1.32 26 2 26 C2.28875 26.804375 2.5775 27.60875 2.875 28.4375 C3.73262568 31.1326468 3.73262568 31.1326468 6 32 C6 32.66 6 33.32 6 34 C6.66 34 7.32 34 8 34 C8 34.99 8 35.98 8 37 C4.64933828 35.614012 3.16628149 34.2243823 1.3125 31.125 C0.89613281 30.44695312 0.47976562 29.76890625 0.05078125 29.0703125 C-2.40656893 24.22869318 -2.18323662 19.3704065 -2.1875 14.0625 C-2.19974609 13.26392578 -2.21199219 12.46535156 -2.22460938 11.64257812 C-2.23539269 7.30409295 -2.02015379 3.9524748 0 0 Z " fill="#4E46BD" transform="translate(111,45)"/>
<path d="M0 0 C0.74507812 0.01353516 1.49015625 0.02707031 2.2578125 0.04101562 C4.08885416 0.07622796 5.91952169 0.13003149 7.75 0.1875 C6.3111898 3.574699 4.52880501 5.5469104 1.75 7.9375 C0.698125 8.85789062 0.698125 8.85789062 -0.375 9.796875 C-2.25 11.1875 -2.25 11.1875 -4.25 11.1875 C-3.65072174 7.83154172 -2.40377564 5.80948774 -0.25 3.1875 C1.07 3.5175 2.39 3.8475 3.75 4.1875 C3.75 3.5275 3.75 2.8675 3.75 2.1875 C2.39455078 2.29578125 2.39455078 2.29578125 1.01171875 2.40625 C-0.75751953 2.54546875 -0.75751953 2.54546875 -2.5625 2.6875 C-3.73425781 2.7803125 -4.90601563 2.873125 -6.11328125 2.96875 C-8.155194 3.11114989 -10.2031279 3.1875 -12.25 3.1875 C-8.60142562 -0.47067589 -4.85390995 -0.16722835 0 0 Z " fill="#4D46B7" transform="translate(36.25,60.8125)"/>
<path d="M0 0 C2.75105422 -0.10812003 5.49785087 -0.18734945 8.25 -0.25 C9.02730469 -0.28351562 9.80460937 -0.31703125 10.60546875 -0.3515625 C16.42997175 -0.45112665 16.42997175 -0.45112665 19.546875 2.015625 C20.02640625 2.67046875 20.5059375 3.3253125 21 4 C20.01 4 19.02 4 18 4 C18 3.34 18 2.68 18 2 C11.565 2.495 11.565 2.495 5 3 C8.3 5.97 11.6 8.94 15 12 C10.6811346 12 8.78127223 9.38440717 5.8125 6.5625 C5.25369141 6.04623047 4.69488281 5.52996094 4.11914062 4.99804688 C2.72081232 3.69191604 1.357217 2.34880015 0 1 C0 0.67 0 0.34 0 0 Z " fill="#4C46B8" transform="translate(61,61)"/>
<path d="M0 0 C4.24773991 2.8318266 7.68032066 5.35488925 11.375 8.75 C12.68597656 9.94882813 12.68597656 9.94882813 14.0234375 11.171875 C15.00183594 12.07679687 15.00183594 12.07679687 16 13 C12.80366562 13 11.65903784 12.66189865 9 11 C8.505 10.319375 8.01 9.63875 7.5 8.9375 C5.75490519 6.6834192 4.76576527 6.38148486 2 6 C2.04125 7.11375 2.0825 8.2275 2.125 9.375 C2 13 2 13 0 15 C0 10.05 0 5.1 0 0 Z " fill="#4F47BE" transform="translate(55,63)"/>
<path d="M0 0 C0.66 0.33 1.32 0.66 2 1 C0.4114658 5.28904235 -2.43127368 7.32345526 -6 10 C-6.66 10 -7.32 10 -8 10 C-8 14.62 -8 19.24 -8 24 C-8.66 24 -9.32 24 -10 24 C-10.10853983 21.77191841 -10.18583307 19.54230068 -10.25 17.3125 C-10.29640625 16.07113281 -10.3428125 14.82976563 -10.390625 13.55078125 C-9.85524197 8.68414955 -7.77719048 6.65083061 -4.296875 3.41796875 C-2.1484375 1.70898438 -2.1484375 1.70898438 0 0 Z " fill="#5349C0" transform="translate(65,31)"/>
<path d="M0 0 C2 2 2 2 2.1953125 5.2578125 C2.16050781 7.17207031 2.16050781 7.17207031 2.125 9.125 C2.10695313 10.40632813 2.08890625 11.68765625 2.0703125 13.0078125 C2.04710937 13.99523438 2.02390625 14.98265625 2 16 C-1.92300272 14.17495091 -4.73787272 11.81729174 -8 9 C-5 8 -5 8 -2 9 C-1.67 9.66 -1.34 10.32 -1 11 C-0.67 7.37 -0.34 3.74 0 0 Z " fill="#4B44B6" transform="translate(49,39)"/>
<path d="M0 0 C0.13536629 2.41854446 0.23420279 4.82949783 0.3125 7.25 C0.3753418 8.27287109 0.3753418 8.27287109 0.43945312 9.31640625 C0.48828125 11.328125 0.48828125 11.328125 0 15 C-2.51953125 17.484375 -2.51953125 17.484375 -5 19 C-5 18.01 -5 17.02 -5 16 C-4.34 15.67 -3.68 15.34 -3 15 C-3 11.37 -3 7.74 -3 4 C-5.97 6.475 -5.97 6.475 -9 9 C-7.81751866 5.80730038 -3.81578526 0 0 0 Z " fill="#4C45B6" transform="translate(51,63)"/>
<path d="M0 0 C0.33 0 0.66 0 1 0 C1.04898437 0.71285156 1.09796875 1.42570312 1.1484375 2.16015625 C1.58128523 7.70508491 2.24028816 12.72086449 4 18 C5.32 17.67 6.64 17.34 8 17 C8 17.99 8 18.98 8 20 C9.32 20.66 10.64 21.32 12 22 C12 22.66 12 23.32 12 24 C8.24345361 23.88951334 6.32804939 22.6954829 3.8125 20.0625 C-0.37238077 14.82061327 -1.3034367 8.93322139 -0.625 2.375 C-0.315625 1.199375 -0.315625 1.199375 0 0 Z " fill="#5045B6" transform="translate(324,61)"/>
<path d="M0 0 C0 0.99 0 1.98 0 3 C-0.33 3.33 -0.66 3.66 -1 4 C3.95 4 8.9 4 14 4 C11 7 11 7 9.09887695 7.34057617 C8.40238037 7.32486572 7.70588379 7.30915527 6.98828125 7.29296875 C6.23095703 7.28330078 5.47363281 7.27363281 4.69335938 7.26367188 C3.51483398 7.2259668 3.51483398 7.2259668 2.3125 7.1875 C1.11657227 7.16719727 1.11657227 7.16719727 -0.10351562 7.14648438 C-2.06929967 7.11117089 -4.03473582 7.05736447 -6 7 C-4.02 4.69 -2.04 2.38 0 0 Z " fill="#4C47B5" transform="translate(14,72)"/>
<path d="M0 0 C3.0625 1.25 3.0625 1.25 5 3 C5.8125 5.1875 5.8125 5.1875 6 7 C4 7 4 7 2.375 5.625 C1 4 1 4 1 2 C-0.72985242 2.11512153 -2.45888751 2.24255677 -4.1875 2.375 C-5.15042969 2.44460937 -6.11335937 2.51421875 -7.10546875 2.5859375 C-10.01508938 3.00215853 -12.32890774 3.79874096 -15 5 C-15 4.34 -15 3.68 -15 3 C-10.56237278 -0.84594359 -5.56084776 -0.67570236 0 0 Z " fill="#4E46BC" transform="translate(216,45)"/>
<path d="M0 0 C0.92017937 13.5470852 0.92017937 13.5470852 -1.3359375 17.109375 C-3 18.4375 -3 18.4375 -6 20 C-4.79618552 17.50638429 -3.54571278 15.31856917 -2 13 C-1.54398739 10.49103314 -1.54398739 10.49103314 -1.375 7.8125 C-1.30023438 6.91144531 -1.22546875 6.01039062 -1.1484375 5.08203125 C-1.09945312 4.39496094 -1.05046875 3.70789063 -1 3 C-3.97 5.475 -3.97 5.475 -7 8 C-7.66 7.67 -8.32 7.34 -9 7 C-7.69013727 5.83037314 -6.3770374 4.66437056 -5.0625 3.5 C-3.96615234 2.52546875 -3.96615234 2.52546875 -2.84765625 1.53125 C-1 0 -1 0 0 0 Z " fill="#4F47B8" transform="translate(76,23)"/>
<path d="M0 0 C2.95839355 -0.02689449 5.91654427 -0.04678741 8.875 -0.0625 C9.71675781 -0.07087891 10.55851562 -0.07925781 11.42578125 -0.08789062 C12.23144531 -0.09111328 13.03710938 -0.09433594 13.8671875 -0.09765625 C14.98262939 -0.10551147 14.98262939 -0.10551147 16.12060547 -0.11352539 C18 0 18 0 20 1 C20 1.66 20 2.32 20 3 C19.01 2.67 18.02 2.34 17 2 C14.94106379 1.77674186 12.87766347 1.59294241 10.8125 1.4375 C9.72582031 1.35371094 8.63914062 1.26992188 7.51953125 1.18359375 C6.68808594 1.12300781 5.85664063 1.06242187 5 1 C5.33 2.32 5.66 3.64 6 5 C6.66 5 7.32 5 8 5 C7.67 5.66 7.34 6.32 7 7 C5.83040013 6.02433888 4.66438823 5.044375 3.5 4.0625 C2.8503125 3.51722656 2.200625 2.97195312 1.53125 2.41015625 C1.0259375 1.94480469 0.520625 1.47945312 0 1 C0 0.67 0 0.34 0 0 Z " fill="#524BBA" transform="translate(8,40)"/>
<path d="M0 0 C0.33 0.99 0.66 1.98 1 3 C0.67 3.66 0.34 4.32 0 5 C0.99 5 1.98 5 3 5 C3 5.66 3 6.32 3 7 C3.99 7.33 4.98 7.66 6 8 C6 8.66 6 9.32 6 10 C6.66 10 7.32 10 8 10 C8.33 11.32 8.66 12.64 9 14 C3.52964787 10.20962911 -0.89962427 6.24972347 -5 1 C-2.525 1.495 -2.525 1.495 0 2 C0 1.34 0 0.68 0 0 Z " fill="#4A41C3" transform="translate(61,77)"/>
<path d="M0 0 C0.66 0.99 1.32 1.98 2 3 C-0.64 2.34 -3.28 1.68 -6 1 C-6.93786082 6.05009595 -6.93786082 6.05009595 -6 11 C-6.99 10.67 -7.98 10.34 -9 10 C-10.32296047 3.62573591 -10.32296047 3.62573591 -9 1.0625 C-5.91060954 -0.57873868 -3.42353094 -0.3734761 0 0 Z " fill="#4B44BD" transform="translate(288,30)"/>
<path d="M0 0 C-0.66 1.65 -1.32 3.3 -2 5 C0.475 6.98 0.475 6.98 3 9 C2.67 9.66 2.34 10.32 2 11 C0.49428343 9.88266271 -1.00444292 8.75589965 -2.5 7.625 C-3.3353125 6.99851562 -4.170625 6.37203125 -5.03125 5.7265625 C-5.6809375 5.15679687 -6.330625 4.58703125 -7 4 C-7 3.34 -7 2.68 -7 2 C-4.35261084 0.5393715 -3.10551666 0 0 0 Z " fill="#4C42C9" transform="translate(38,36)"/>
<path d="M0 0 C1.98 0 3.96 0 6 0 C4.77065985 3.68802044 3.06140622 4.72356973 0 7 C-0.66 6.67 -1.32 6.34 -2 6 C-1.49396008 3.83125748 -1.00016187 2.00032373 0 0 Z " fill="#5045E0" transform="translate(309,75)"/>
<path d="M0 0 C-0.53115106 4.51478398 -2.36620292 7.34666857 -5 11 C-8 7.125 -8 7.125 -8 6 C-6.35 6 -4.7 6 -3 6 C-3 4.68 -3 3.36 -3 2 C-3.66 1.67 -4.32 1.34 -5 1 C-3 0 -3 0 0 0 Z " fill="#5045CD" transform="translate(156,69)"/>
<path d="M0 0 C0.79921875 0.00902344 1.5984375 0.01804688 2.421875 0.02734375 C3.02515625 0.03894531 3.6284375 0.05054688 4.25 0.0625 C4.25 1.0525 4.25 2.0425 4.25 3.0625 C2.64125 2.7221875 2.64125 2.7221875 1 2.375 C-2.67730313 1.67718259 -2.67730313 1.67718259 -5 3.5625 C-5.5775 4.0575 -6.155 4.5525 -6.75 5.0625 C-7.74 4.7325 -8.73 4.4025 -9.75 4.0625 C-9.42 3.0725 -9.09 2.0825 -8.75 1.0625 C-5.8585914 -0.0569613 -3.07237388 -0.04518197 0 0 Z " fill="#4E43C4" transform="translate(252.75,52.9375)"/>
<path d="M0 0 C1.65 0.33 3.3 0.66 5 1 C5 1.66 5 2.32 5 3 C-0.47619048 8 -0.47619048 8 -3 8 C-2.37240135 5.07120629 -1.41377341 2.63904371 0 0 Z " fill="#4940C8" transform="translate(35,64)"/>
<path d="M0 0 C5.94 0 11.88 0 18 0 C16.68 1.32 15.36 2.64 14 4 C14 3.34 14 2.68 14 2 C9.05 2 4.1 2 -1 2 C-0.67 1.34 -0.34 0.68 0 0 Z " fill="#5349BE" transform="translate(80,40)"/>
<path d="M0 0 C2.375 -0.125 2.375 -0.125 5 0 C7 2 7 2 7 6 C6.01 6 5.02 6 4 6 C3.67 5.34 3.34 4.68 3 4 C2.01 3.67 1.02 3.34 0 3 C0 2.01 0 1.02 0 0 Z " fill="#4F43E5" transform="translate(370,35)"/>
<path d="M0 0 C1.65 0 3.3 0 5 0 C5.33 0.99 5.66 1.98 6 3 C8.64 3.33 11.28 3.66 14 4 C14 4.33 14 4.66 14 5 C10.61884349 5.29036649 7.37080851 5.44908891 4 5 C1.375 2.5 1.375 2.5 0 0 Z " fill="#4E44CC" transform="translate(21,51)"/>
<path d="M0 0 C0.33 0.99 0.66 1.98 1 3 C3.00016466 4.20882096 3.00016466 4.20882096 5 5 C5 5.66 5 6.32 5 7 C2.21788056 6.62403791 0.4120716 6.32681541 -1.8125 4.5625 C-3 3 -3 3 -3 1 C-2.01 0.67 -1.02 0.34 0 0 Z " fill="#4D44C6" transform="translate(331,78)"/>
<path d="M0 0 C0.99 0.33 1.98 0.66 3 1 C3 1.66 3 2.32 3 3 C-2.61 3 -8.22 3 -14 3 C-14 2.67 -14 2.34 -14 2 C-9.38 2 -4.76 2 0 2 C0 1.34 0 0.68 0 0 Z " fill="#544CB1" transform="translate(41,54)"/>
<path d="M0 0 C0.99 0 1.98 0 3 0 C3.66 1.65 4.32 3.3 5 5 C3.35 5.66 1.7 6.32 0 7 C0 4.69 0 2.38 0 0 Z " fill="#4A3FE1" transform="translate(31,26)"/>
<path d="M0 0 C0.33 0 0.66 0 1 0 C1 3.63 1 7.26 1 11 C1.99 11.33 2.98 11.66 4 12 C2.02 12.99 2.02 12.99 0 14 C0 9.38 0 4.76 0 0 Z " fill="#5249BA" transform="translate(30,81)"/>
<path d="M0 0 C0.66 0.33 1.32 0.66 2 1 C0.38731308 3.71224618 -1.24901874 6.37352812 -3 9 C-3.66 9 -4.32 9 -5 9 C-3.90931332 5.22454612 -3.0916909 2.52956528 0 0 Z " fill="#4A41BB" transform="translate(330,52)"/>
<path d="M0 0 C1.32 0.66 2.64 1.32 4 2 C2.02 3.32 0.04 4.64 -2 6 C-2.33 4.68 -2.66 3.36 -3 2 C-2.01 1.34 -1.02 0.68 0 0 Z " fill="#4C44CA" transform="translate(59,48)"/>
<path d="M0 0 C-0.99 0.66 -1.98 1.32 -3 2 C-3.66 2.66 -4.32 3.32 -5 4 C-5.99 4.495 -5.99 4.495 -7 5 C-9.125 4.0625 -9.125 4.0625 -11 3 C-7.14243493 0.84694043 -4.44870215 -0.39253254 0 0 Z " fill="#5349BF" transform="translate(129,33)"/>
<path d="M0 0 C1.31611677 0.95336021 2.62778961 1.91285774 3.9375 2.875 C4.66839844 3.40867187 5.39929687 3.94234375 6.15234375 4.4921875 C8 6 8 6 9 8 C5.625 7.375 5.625 7.375 2 6 C0.5625 2.875 0.5625 2.875 0 0 Z " fill="#4D45B9" transform="translate(34,26)"/>
<path d="M0 0 C0.33 0 0.66 0 1 0 C1 2.97 1 5.94 1 9 C0.01 9 -0.98 9 -2 9 C-2.33 8.34 -2.66 7.68 -3 7 C-2.34 6.34 -1.68 5.68 -1 5 C-0.35232207 2.42938689 -0.35232207 2.42938689 0 0 Z " fill="#4B41D1" transform="translate(74,84)"/>
<path d="M0 0 C3.53600465 1.91135386 5.78972846 3.62642766 8 7 C7.01 7.495 7.01 7.495 6 8 C5.34 7.01 4.68 6.02 4 5 C3.01 4.67 2.02 4.34 1 4 C0.3125 1.9375 0.3125 1.9375 0 0 Z " fill="#4F46BF" transform="translate(82,65)"/>
<path d="M0 0 C1.65 0 3.3 0 5 0 C5.33 1.65 5.66 3.3 6 5 C2.83884224 3.63016497 2.0072908 3.0109362 0 0 Z " fill="#4F48C4" transform="translate(41,47)"/>
</svg>
